<svg width="67" height="68" xmlns="http://www.w3.org/2000/svg" xmlns:xlink="http://www.w3.org/1999/xlink" overflow="hidden"><defs><clipPath id="clip0"><path d="M503 143 570 143 570 211 503 211Z" fill-rule="evenodd" clip-rule="evenodd"/></clipPath></defs><g clip-path="url(#clip0)" transform="translate(-503 -143)"><path d="M536 148C552.006 148 565 160.994 565 177 565 193.006 552.006 206 536 206 519.994 206 507 193.006 507 177 507 160.994 519.994 148 536 148ZM536 152.507C549.519 152.507 560.493 163.481 560.493 177 560.493 190.519 549.519 201.493 536 201.493 522.481 201.493 511.507 190.519 511.507 177 511.507 163.481 522.481 152.507 536 152.507Z" stroke="#000000" stroke-width="8" stroke-linejoin="round" stroke-miterlimit="10" fill-rule="evenodd"/></g></svg>